<?xml version="1.0" standalone="no"?>
<!DOCTYPE svg PUBLIC "-//W3C//DTD SVG 20010904//EN"
 "http://www.w3.org/TR/2001/REC-SVG-20010904/DTD/svg10.dtd">
<svg version="1.0" xmlns="http://www.w3.org/2000/svg"
 width="365.000000pt" height="365.000000pt" viewBox="0 0 365.000000 365.000000"
 preserveAspectRatio="xMidYMid meet">
<metadata>
Created by potrace 1.14, written by Peter Selinger 2001-2017
</metadata>
<g transform="translate(0.000000,365.000000) scale(0.100000,-0.100000)"
fill="#000000" stroke="none">
<path d="M0 1825 l0 -1825 1825 0 1825 0 0 1825 0 1825 -1825 0 -1825 0 0
-1825z m2046 1428 c46 -25 91 -79 110 -132 10 -27 13 -143 14 -468 l0 -433 41
0 c136 0 269 -91 331 -225 22 -49 23 -56 28 -546 l5 -496 30 -49 c19 -29 49
-60 78 -78 41 -25 61 -30 133 -34 79 -4 88 -3 149 27 55 27 70 41 96 84 30 51
30 54 26 162 -4 72 -21 192 -52 350 -70 365 -85 476 -95 718 -9 235 -26 345
-74 486 -65 189 -197 360 -370 481 -19 14 -36 32 -36 40 0 8 11 39 25 68 29
62 26 62 147 0 78 -40 190 -129 262 -208 71 -77 182 -246 239 -364 32 -64 57
-122 57 -129 0 -7 -25 -37 -56 -67 -54 -54 -55 -56 -50 -100 3 -25 8 -90 11
-145 12 -219 17 -274 31 -370 9 -55 29 -156 45 -225 105 -441 119 -598 67
-738 -31 -82 -130 -179 -219 -215 -89 -35 -192 -43 -287 -23 -141 29 -240 104
-299 225 l-28 56 -5 495 c-5 489 -5 496 -27 537 -33 62 -83 96 -149 101 l-54
4 0 -771 0 -771 30 0 c145 0 193 -172 64 -226 -49 -21 -1649 -21 -1698 0 -129
54 -85 226 58 226 l36 0 0 1298 0 1298 26 52 c14 29 41 64 60 78 70 54 64 54
684 51 570 -2 575 -2 616 -24z"/>
<path d="M953 3020 c-17 -10 -36 -28 -42 -38 -15 -28 -16 -711 -1 -744 27 -58
28 -58 505 -58 476 0 478 0 504 57 7 16 11 144 11 376 0 386 1 381 -60 412
-24 13 -97 15 -457 15 -406 0 -430 -1 -460 -20z"/>
</g>
</svg>
